<?xml version="1.0" encoding="utf-8"?>
<!-- Generator: Adobe Illustrator 17.1.0, SVG Export Plug-In . SVG Version: 6.00 Build 0)  -->
<!DOCTYPE svg PUBLIC "-//W3C//DTD SVG 1.1//EN" "http://www.w3.org/Graphics/SVG/1.1/DTD/svg11.dtd">
<svg version="1.1" id="_x2014_ÎÓÈ_1" xmlns="http://www.w3.org/2000/svg" xmlns:xlink="http://www.w3.org/1999/xlink" x="0px"
	 y="0px" width="720px" height="720px" viewBox="0 0 720 720" enable-background="new 0 0 720 720" xml:space="preserve">
<path fill-rule="evenodd" clip-rule="evenodd" fill="#C5C6C6" d="M369.4,216.7l-8.8-8.8c-2-2-4.4-3-7.2-3c-2.7,0.1-5.2,1.2-7,3.2
	l-56.3,60.6l18.4,18.3l60.5-56.2c2-1.9,3.1-4.3,3.1-7C372.3,221.1,371.4,218.6,369.4,216.7"/>
<path fill-rule="evenodd" clip-rule="evenodd" fill="#C5C6C6" d="M498.9,347.2l8.8,8.8c2,2,3,4.4,3,7.2c-0.1,2.7-1.2,5.2-3.2,7.1
	l-60.6,56.1l-18.3-18.3l56.2-60.5c1.9-2,4.3-3.1,7-3.1C494.6,344.3,497,345.3,498.9,347.2"/>
<path fill-rule="evenodd" clip-rule="evenodd" fill="#FEFEFE" d="M120.3,595.4c-5.8-5.2-5.5-16.6,0.9-29.7l-82.5-53.8
	c8.9-8.8,17.5-14.4,32.2-16.4l95.7-12.8c7.3-0.9,14.4-1.5,20.9-2.8c10.6-16,43.1-56.6,59.3-78l43.3-57.3L80.7,281.6
	c-21.9-6.6,19.3-55.4,39.1-50l276.1,7.3l69.6-69.6C520,114.9,593,89.4,609.6,106c16.6,16.6-8.8,89.8-63.1,144.2l-69.6,69.6
	l7.3,276.1c5.4,19.8-43.4,60.9-50,39.1L371,425.6l-57.2,43.3c-21.5,16.2-62.1,48.8-78.1,59.3c-1.4,6.6-1.9,13.6-2.8,20.9l-12.8,95.7
	c-1.9,14.6-7.6,23.3-16.4,32.1L150,594.5C136.9,600.9,125.5,601.2,120.3,595.4"/>
<path fill-rule="evenodd" clip-rule="evenodd" fill="#D9DADA" d="M476.9,319.7l7.3,276.1c5.4,19.8-43.4,60.9-50,39.1l-63-209.4
	L476.9,319.7z"/>
<path fill-rule="evenodd" clip-rule="evenodd" fill="#D9DADA" d="M290.1,344.6l-209.5-63c-21.8-6.5,19.4-55.5,39.2-50l276.1,7.2
	L290.1,344.6z"/>
<path fill-rule="evenodd" clip-rule="evenodd" fill="#EBECEC" d="M609.6,106c16.6,16.6-8.8,89.8-63.1,144.2l-69.7,69.6L371,425.5
	l-57.3,43.3c-21.5,16.2-62.1,48.8-78.1,59.3c-1.4,6.6-1.9,13.6-2.8,20.9l-12.7,95.8c-1.9,14.5-7.6,23.3-16.4,32L150,594.5
	c-13.2,6.4-24.5,6.7-29.7,0.8L609.6,106z"/>
<path fill-rule="evenodd" clip-rule="evenodd" fill="#B4CCFA" d="M499.7,149c61.9-24.7,92.5,6.3,68,68
	C562.8,177.5,539.4,153.7,499.7,149"/>
<path fill-rule="evenodd" clip-rule="evenodd" fill="#D9DADA" d="M228.1,488.6L228.1,488.6c1.9,1.9,1.9,5,0,6.9l-85.6,85.6
	c-1.9,2-5,2-6.9,0c-2-1.9-2-5,0-6.9l85.6-85.6C223.2,486.6,226.2,486.6,228.1,488.6"/>
</svg>
